<svg width="47" height="45" viewBox="0 0 47 45" fill="none" xmlns="http://www.w3.org/2000/svg">
<path d="M24.1996 1.01875C-2.21663 0.0412744 -8.12829 37.5785 17.2218 44L18.2184 43.0225V39.1151C14.765 39.1216 12.9573 39.0699 11.739 38.1383C9.74533 35.6962 9.74533 33.2541 7.25325 32.2772C4.76117 31.3004 7.25325 31.7888 7.25325 31.7888C9.71526 31.0403 10.7823 32.6547 12.7358 35.2078C14.8367 36.4727 16.0446 36.3808 18.2184 35.6962C18.4194 34.386 18.7643 33.7498 19.7136 32.7656C9.02672 31.7923 7.57162 21.9889 11.739 15.6708C11.1153 14.2581 11.2132 12.114 12.2374 9.80974C14.8615 10.0851 16.1 10.7872 18.2184 12.2519C22.2425 11.4388 24.6345 11.2263 29.6819 12.2519C31.8826 10.5226 33.2136 10.1123 35.6629 9.80974C36.666 11.9418 36.5618 13.4234 36.1613 16.1592C41.1455 22.0203 37.6566 32.7656 28.1867 32.7656L28.6851 33.2541C28.91 33.8837 29.0304 34.2618 29.1835 35.2078C29.503 43.0926 29.3624 43.8426 30.1804 44C55.1011 37.6499 48.6673 2.26174 24.1996 1.01875Z" stroke="white" stroke-width="2" stroke-linejoin="round"/>
</svg>
