<svg width="824" height="560" viewBox="0 0 824 560" fill="none" xmlns="http://www.w3.org/2000/svg">
<path d="M4 555.971V5.00366L56.3296 5.00363V271.287H119.302V5.00363H169.281V555.971H119.302V315.5H56.3296V555.971H4Z" stroke="#465375" stroke-opacity="0.69" stroke-width="7"/>
<path d="M197.269 555.971V5.00363H333.21V51H250.246V271.287H333.21V315.5H250.246V508H333.21V555.971H197.269Z" stroke="#465375" stroke-opacity="0.69" stroke-width="7"/>
<path d="M716 511V47H775V511H716Z" stroke="#465375" stroke-opacity="0.69" stroke-width="7"/>
<path d="M346.205 556V4H402L400.43 510H497.836V556H346.205Z" stroke="#465375" stroke-opacity="0.69" stroke-width="7"/>
<path d="M659.879 556H512.633V4H567.938L565 510H659.879V556Z" stroke="#465375" stroke-opacity="0.69" stroke-width="7"/>
<path d="M675.063 556V4H820L815.83 556H675.063Z" stroke="#465375" stroke-opacity="0.69" stroke-width="7"/>
</svg>
