<svg width="45" height="45" viewBox="0 0 45 45" fill="none" xmlns="http://www.w3.org/2000/svg">
<rect x="1" y="1" width="43" height="43" rx="4" stroke="white" stroke-width="2"/>
<path d="M17.2012 33H12.9531V17.1504H17.2012V33ZM12.7041 13.0488C12.7041 12.4141 12.9141 11.8916 13.334 11.4814C13.7637 11.0713 14.3447 10.8662 15.0771 10.8662C15.7998 10.8662 16.376 11.0713 16.8057 11.4814C17.2354 11.8916 17.4502 12.4141 17.4502 13.0488C17.4502 13.6934 17.2305 14.2207 16.791 14.6309C16.3613 15.041 15.79 15.2461 15.0771 15.2461C14.3643 15.2461 13.7881 15.041 13.3486 14.6309C12.9189 14.2207 12.7041 13.6934 12.7041 13.0488ZM24.5986 17.1504L24.7305 18.9814C25.8633 17.5654 27.3818 16.8574 29.2861 16.8574C30.9658 16.8574 32.2158 17.3506 33.0361 18.3369C33.8564 19.3232 34.2764 20.7979 34.2959 22.7607V33H30.0625V22.8633C30.0625 21.9648 29.8672 21.3154 29.4766 20.915C29.0859 20.5049 28.4365 20.2998 27.5283 20.2998C26.3369 20.2998 25.4434 20.8076 24.8477 21.8232V33H20.6143V17.1504H24.5986Z" fill="white"/>
</svg>
