<svg width="3100" height="635" viewBox="0 0 5063 635" fill="none" xmlns="http://www.w3.org/2000/svg">
<path d="M1665.85 457.63L1665.96 459.014H1667.35H1728.9H1730.4V457.514V453.532C1730.4 431.315 1732.49 413.156 1736.65 399.009C1740.83 384.769 1745.85 373.807 1751.66 366.04L1751.67 366.035C1757.92 357.626 1766.45 348.13 1777.29 337.546L1777.3 337.536C1789.62 325.282 1799.5 313.799 1806.93 303.086C1814.44 292.262 1820.63 276.941 1825.56 257.216C1830.87 237.402 1833.5 212.046 1833.5 181.191C1833.5 151.337 1829.8 123.065 1822.4 96.3811C1814.99 69.1338 1803.49 47.1372 1787.86 30.465C1772.16 13.1776 1752.82 4.5 1729.95 4.5C1710.61 4.5 1693.24 11.5624 1677.91 25.5939C1662.95 39.0747 1651.09 58.1546 1642.27 82.7362L1642.26 82.7453L1642.26 82.7543C1633.78 107.349 1629.2 135.378 1628.5 166.823L1628.47 168.256L1629.9 168.353L1700.39 173.131L1701.87 173.232L1701.99 171.747C1703.74 148.428 1706.18 129.935 1709.31 116.238C1711.03 109.209 1713.49 104.111 1716.58 100.788C1719.63 97.5111 1723.35 95.8916 1727.84 95.8916C1732.46 95.8916 1736.47 97.4699 1739.95 100.671C1743.46 103.903 1746.47 108.839 1748.92 115.607C1753.83 129.159 1756.33 149.652 1756.33 177.209C1756.33 196.767 1754.41 212.799 1750.61 225.35L1750.6 225.36L1750.6 225.37C1747.12 237.477 1742.81 246.841 1737.7 253.543C1732.5 260.357 1725.2 268.257 1715.77 277.25C1704.85 287.382 1696.01 297.275 1689.28 306.931C1682.46 316.172 1676.62 329.909 1671.69 348.024L1671.68 348.037L1671.68 348.051C1667.08 366.268 1664.8 390.03 1664.8 419.29C1664.8 435.761 1665.15 448.547 1665.85 457.63ZM1659.54 612V613.6L1661.13 613.497L1735.3 608.719L1736.71 608.629V607.222V494.941V493.441H1735.21H1661.04H1659.54V494.941V612Z" stroke="#8596C2" stroke-opacity="0.69" stroke-width="3"/>
<path d="M1989.85 457.63L1989.96 459.014H1991.35H2052.9H2054.4V457.514V453.532C2054.4 431.315 2056.49 413.156 2060.65 399.009C2064.83 384.769 2069.85 373.807 2075.66 366.04L2075.67 366.035C2081.92 357.626 2090.45 348.13 2101.29 337.546L2101.3 337.536C2113.62 325.282 2123.5 313.799 2130.93 303.086C2138.44 292.262 2144.63 276.941 2149.56 257.216C2154.87 237.402 2157.5 212.046 2157.5 181.191C2157.5 151.337 2153.8 123.065 2146.4 96.3811C2138.99 69.1338 2127.49 47.1372 2111.86 30.465C2096.16 13.1776 2076.82 4.5 2053.95 4.5C2034.61 4.5 2017.24 11.5624 2001.91 25.5939C1986.95 39.0747 1975.09 58.1546 1966.27 82.7362L1966.26 82.7453L1966.26 82.7543C1957.78 107.349 1953.2 135.378 1952.5 166.823L1952.47 168.256L1953.9 168.353L2024.39 173.131L2025.87 173.232L2025.99 171.747C2027.74 148.428 2030.18 129.935 2033.31 116.238C2035.03 109.209 2037.49 104.111 2040.58 100.788C2043.63 97.5111 2047.35 95.8916 2051.84 95.8916C2056.46 95.8916 2060.47 97.4699 2063.95 100.671C2067.46 103.903 2070.47 108.839 2072.92 115.607C2077.83 129.159 2080.33 149.652 2080.33 177.209C2080.33 196.767 2078.41 212.799 2074.61 225.35L2074.6 225.36L2074.6 225.37C2071.12 237.477 2066.81 246.841 2061.7 253.543C2056.5 260.357 2049.2 268.257 2039.77 277.25C2028.85 287.382 2020.01 297.275 2013.28 306.931C2006.46 316.172 2000.62 329.909 1995.69 348.024L1995.68 348.037L1995.68 348.051C1991.08 366.268 1988.8 390.03 1988.8 419.29C1988.8 435.761 1989.15 448.547 1989.85 457.63ZM1983.54 612V613.6L1985.13 613.497L2059.3 608.719L2060.71 608.629V607.222V494.941V493.441H2059.21H1985.04H1983.54V494.941V612Z" stroke="#8596C2" stroke-opacity="0.69" stroke-width="3"/>
<path d="M2313.85 457.63L2313.96 459.014H2315.35H2376.9H2378.4V457.514V453.532C2378.4 431.315 2380.49 413.156 2384.65 399.009C2388.83 384.769 2393.85 373.807 2399.66 366.04L2399.67 366.035C2405.92 357.626 2414.45 348.13 2425.29 337.546L2425.3 337.536C2437.62 325.282 2447.5 313.799 2454.93 303.086C2462.44 292.262 2468.63 276.941 2473.56 257.216C2478.87 237.402 2481.5 212.046 2481.5 181.191C2481.5 151.337 2477.8 123.065 2470.4 96.3811C2462.99 69.1338 2451.49 47.1372 2435.86 30.465C2420.16 13.1776 2400.82 4.5 2377.95 4.5C2358.61 4.5 2341.24 11.5624 2325.91 25.5939C2310.95 39.0747 2299.09 58.1546 2290.27 82.7362L2290.26 82.7453L2290.26 82.7543C2281.78 107.349 2277.2 135.378 2276.5 166.823L2276.47 168.256L2277.9 168.353L2348.39 173.131L2349.87 173.232L2349.99 171.747C2351.74 148.428 2354.18 129.935 2357.31 116.238C2359.03 109.209 2361.49 104.111 2364.58 100.788C2367.63 97.5111 2371.35 95.8916 2375.84 95.8916C2380.46 95.8916 2384.47 97.4699 2387.95 100.671C2391.46 103.903 2394.47 108.839 2396.92 115.607C2401.83 129.159 2404.33 149.652 2404.33 177.209C2404.33 196.767 2402.41 212.799 2398.61 225.35L2398.6 225.36L2398.6 225.37C2395.12 237.477 2390.81 246.841 2385.7 253.543C2380.5 260.357 2373.2 268.257 2363.77 277.25C2352.85 287.382 2344.01 297.275 2337.28 306.931C2330.46 316.172 2324.62 329.909 2319.69 348.024L2319.68 348.037L2319.68 348.051C2315.08 366.268 2312.8 390.03 2312.8 419.29C2312.8 435.761 2313.15 448.547 2313.85 457.63ZM2307.54 612V613.6L2309.13 613.497L2383.3 608.719L2384.71 608.629V607.222V494.941V493.441H2383.21H2309.04H2307.54V494.941V612Z" stroke="#8596C2" stroke-opacity="0.69" stroke-width="3"/>
<path d="M2625.85 457.63L2625.96 459.014H2627.35H2688.9H2690.4V457.514V453.532C2690.4 431.315 2692.49 413.156 2696.65 399.009C2700.83 384.769 2705.85 373.807 2711.66 366.04L2711.67 366.035C2717.92 357.626 2726.45 348.13 2737.29 337.546L2737.3 337.536C2749.62 325.282 2759.5 313.799 2766.93 303.086C2774.44 292.262 2780.63 276.941 2785.56 257.216C2790.87 237.402 2793.5 212.046 2793.5 181.191C2793.5 151.337 2789.8 123.065 2782.4 96.3811C2774.99 69.1338 2763.49 47.1372 2747.86 30.465C2732.16 13.1776 2712.82 4.5 2689.95 4.5C2670.61 4.5 2653.24 11.5624 2637.91 25.5939C2622.95 39.0747 2611.09 58.1546 2602.27 82.7362L2602.26 82.7453L2602.26 82.7543C2593.78 107.349 2589.2 135.378 2588.5 166.823L2588.47 168.256L2589.9 168.353L2660.39 173.131L2661.87 173.232L2661.99 171.747C2663.74 148.428 2666.18 129.935 2669.31 116.238C2671.03 109.209 2673.49 104.111 2676.58 100.788C2679.63 97.5111 2683.35 95.8916 2687.84 95.8916C2692.46 95.8916 2696.47 97.4699 2699.95 100.671C2703.46 103.903 2706.47 108.839 2708.92 115.607C2713.83 129.159 2716.33 149.652 2716.33 177.209C2716.33 196.767 2714.41 212.799 2710.61 225.35L2710.6 225.36L2710.6 225.37C2707.12 237.477 2702.81 246.841 2697.7 253.543C2692.5 260.357 2685.2 268.257 2675.77 277.25C2664.85 287.382 2656.01 297.275 2649.28 306.931C2642.46 316.172 2636.62 329.909 2631.69 348.024L2631.68 348.037L2631.68 348.051C2627.08 366.268 2624.8 390.03 2624.8 419.29C2624.8 435.761 2625.15 448.547 2625.85 457.63ZM2619.54 612V613.6L2621.13 613.497L2695.3 608.719L2696.71 608.629V607.222V494.941V493.441H2695.21H2621.04H2619.54V494.941V612Z" stroke="#8596C2" stroke-opacity="0.69" stroke-width="3"/>
<path d="M2949.85 457.63L2949.96 459.014H2951.35H3012.9H3014.4V457.514V453.532C3014.4 431.315 3016.49 413.156 3020.65 399.009C3024.83 384.769 3029.85 373.807 3035.66 366.04L3035.67 366.035C3041.92 357.626 3050.45 348.13 3061.29 337.546L3061.3 337.536C3073.62 325.282 3083.5 313.799 3090.93 303.086C3098.44 292.262 3104.63 276.941 3109.56 257.216C3114.87 237.402 3117.5 212.046 3117.5 181.191C3117.5 151.337 3113.8 123.065 3106.4 96.3811C3098.99 69.1338 3087.49 47.1372 3071.86 30.465C3056.16 13.1776 3036.82 4.5 3013.95 4.5C2994.61 4.5 2977.24 11.5624 2961.91 25.5939C2946.95 39.0747 2935.09 58.1546 2926.27 82.7362L2926.26 82.7453L2926.26 82.7543C2917.78 107.349 2913.2 135.378 2912.5 166.823L2912.47 168.256L2913.9 168.353L2984.39 173.131L2985.87 173.232L2985.99 171.747C2987.74 148.428 2990.18 129.935 2993.31 116.238C2995.03 109.209 2997.49 104.111 3000.58 100.788C3003.63 97.5111 3007.35 95.8916 3011.84 95.8916C3016.46 95.8916 3020.47 97.4699 3023.95 100.671C3027.46 103.903 3030.47 108.839 3032.92 115.607C3037.83 129.159 3040.33 149.652 3040.33 177.209C3040.33 196.767 3038.41 212.799 3034.61 225.35L3034.6 225.36L3034.6 225.37C3031.12 237.477 3026.81 246.841 3021.7 253.543C3016.5 260.357 3009.2 268.257 2999.77 277.25C2988.85 287.382 2980.01 297.275 2973.28 306.931C2966.46 316.172 2960.62 329.909 2955.69 348.024L2955.68 348.037L2955.68 348.051C2951.08 366.268 2948.8 390.03 2948.8 419.29C2948.8 435.761 2949.15 448.547 2949.85 457.63ZM2943.54 612V613.6L2945.13 613.497L3019.3 608.719L3020.71 608.629V607.222V494.941V493.441H3019.21H2945.04H2943.54V494.941V612Z" stroke="#8596C2" stroke-opacity="0.69" stroke-width="3"/>
<path d="M3273.85 457.63L3273.96 459.014H3275.35H3336.9H3338.4V457.514V453.532C3338.4 431.315 3340.49 413.156 3344.65 399.009C3348.83 384.769 3353.85 373.807 3359.66 366.04L3359.67 366.035C3365.92 357.626 3374.45 348.13 3385.29 337.546L3385.3 337.536C3397.62 325.282 3407.5 313.799 3414.93 303.086C3422.44 292.262 3428.63 276.941 3433.56 257.216C3438.87 237.402 3441.5 212.046 3441.5 181.191C3441.5 151.337 3437.8 123.065 3430.4 96.3811C3422.99 69.1338 3411.49 47.1372 3395.86 30.465C3380.16 13.1776 3360.82 4.5 3337.95 4.5C3318.61 4.5 3301.24 11.5624 3285.91 25.5939C3270.95 39.0747 3259.09 58.1546 3250.27 82.7362L3250.26 82.7453L3250.26 82.7543C3241.78 107.349 3237.2 135.378 3236.5 166.823L3236.47 168.256L3237.9 168.353L3308.39 173.131L3309.87 173.232L3309.99 171.747C3311.74 148.428 3314.18 129.935 3317.31 116.238C3319.03 109.209 3321.49 104.111 3324.58 100.788C3327.63 97.5111 3331.35 95.8916 3335.84 95.8916C3340.46 95.8916 3344.47 97.4699 3347.95 100.671C3351.46 103.903 3354.47 108.839 3356.92 115.607C3361.83 129.159 3364.33 149.652 3364.33 177.209C3364.33 196.767 3362.41 212.799 3358.61 225.35L3358.6 225.36L3358.6 225.37C3355.12 237.477 3350.81 246.841 3345.7 253.543C3340.5 260.357 3333.2 268.257 3323.77 277.25C3312.85 287.382 3304.01 297.275 3297.28 306.931C3290.46 316.172 3284.62 329.909 3279.69 348.024L3279.68 348.037L3279.68 348.051C3275.08 366.268 3272.8 390.03 3272.8 419.29C3272.8 435.761 3273.15 448.547 3273.85 457.63ZM3267.54 612V613.6L3269.13 613.497L3343.3 608.719L3344.71 608.629V607.222V494.941V493.441H3343.21H3269.04H3267.54V494.941V612Z" stroke="#8596C2" stroke-opacity="0.69" stroke-width="3"/>
<path d="M3597.85 457.63L3597.96 459.014H3599.35H3660.9H3662.4V457.514V453.532C3662.4 431.315 3664.49 413.156 3668.65 399.009C3672.83 384.769 3677.85 373.807 3683.66 366.04L3683.67 366.035C3689.92 357.626 3698.45 348.13 3709.29 337.546L3709.3 337.536C3721.62 325.282 3731.5 313.799 3738.93 303.086C3746.44 292.262 3752.63 276.941 3757.56 257.216C3762.87 237.402 3765.5 212.046 3765.5 181.191C3765.5 151.337 3761.8 123.065 3754.4 96.3811C3746.99 69.1338 3735.49 47.1372 3719.86 30.465C3704.16 13.1776 3684.82 4.5 3661.95 4.5C3642.61 4.5 3625.24 11.5624 3609.91 25.5939C3594.95 39.0747 3583.09 58.1546 3574.27 82.7362L3574.26 82.7453L3574.26 82.7543C3565.78 107.349 3561.2 135.378 3560.5 166.823L3560.47 168.256L3561.9 168.353L3632.39 173.131L3633.87 173.232L3633.99 171.747C3635.74 148.428 3638.18 129.935 3641.31 116.238C3643.03 109.209 3645.49 104.111 3648.58 100.788C3651.63 97.5111 3655.35 95.8916 3659.84 95.8916C3664.46 95.8916 3668.47 97.4699 3671.95 100.671C3675.46 103.903 3678.47 108.839 3680.92 115.607C3685.83 129.159 3688.33 149.652 3688.33 177.209C3688.33 196.767 3686.41 212.799 3682.61 225.35L3682.6 225.36L3682.6 225.37C3679.12 237.477 3674.81 246.841 3669.7 253.543C3664.5 260.357 3657.2 268.257 3647.77 277.25C3636.85 287.382 3628.01 297.275 3621.28 306.931C3614.46 316.172 3608.62 329.909 3603.69 348.024L3603.68 348.037L3603.68 348.051C3599.08 366.268 3596.8 390.03 3596.8 419.29C3596.8 435.761 3597.15 448.547 3597.85 457.63ZM3591.54 612V613.6L3593.13 613.497L3667.3 608.719L3668.71 608.629V607.222V494.941V493.441H3667.21H3593.04H3591.54V494.941V612Z" stroke="#8596C2" stroke-opacity="0.69" stroke-width="3"/>
<path d="M3921.85 457.63L3921.96 459.014H3923.35H3984.9H3986.4V457.514V453.532C3986.4 431.315 3988.49 413.156 3992.65 399.009C3996.83 384.769 4001.85 373.807 4007.66 366.04L4007.67 366.035C4013.92 357.626 4022.45 348.13 4033.29 337.546L4033.3 337.536C4045.62 325.282 4055.5 313.799 4062.93 303.086C4070.44 292.262 4076.63 276.941 4081.56 257.216C4086.87 237.402 4089.5 212.046 4089.5 181.191C4089.5 151.337 4085.8 123.065 4078.4 96.3811C4070.99 69.1338 4059.49 47.1372 4043.86 30.465C4028.16 13.1776 4008.82 4.5 3985.95 4.5C3966.61 4.5 3949.24 11.5624 3933.91 25.5939C3918.95 39.0747 3907.09 58.1546 3898.27 82.7362L3898.26 82.7453L3898.26 82.7543C3889.78 107.349 3885.2 135.378 3884.5 166.823L3884.47 168.256L3885.9 168.353L3956.39 173.131L3957.87 173.232L3957.99 171.747C3959.74 148.428 3962.18 129.935 3965.31 116.238C3967.03 109.209 3969.49 104.111 3972.58 100.788C3975.63 97.5111 3979.35 95.8916 3983.84 95.8916C3988.46 95.8916 3992.47 97.4699 3995.95 100.671C3999.46 103.903 4002.47 108.839 4004.92 115.607C4009.83 129.159 4012.33 149.652 4012.33 177.209C4012.33 196.767 4010.41 212.799 4006.61 225.35L4006.6 225.36L4006.6 225.37C4003.12 237.477 3998.81 246.841 3993.7 253.543C3988.5 260.357 3981.2 268.257 3971.77 277.25C3960.85 287.382 3952.01 297.275 3945.28 306.931C3938.46 316.172 3932.62 329.909 3927.69 348.024L3927.68 348.037L3927.68 348.051C3923.08 366.268 3920.8 390.03 3920.8 419.29C3920.8 435.761 3921.15 448.547 3921.85 457.63ZM3915.54 612V613.6L3917.13 613.497L3991.3 608.719L3992.71 608.629V607.222V494.941V493.441H3991.21H3917.04H3915.54V494.941V612Z" stroke="#8596C2" stroke-opacity="0.69" stroke-width="3"/>
<path d="M4245.85 457.63L4245.96 459.014H4247.35H4308.9H4310.4V457.514V453.532C4310.4 431.315 4312.49 413.156 4316.65 399.009C4320.83 384.769 4325.85 373.807 4331.66 366.04L4331.67 366.035C4337.92 357.626 4346.45 348.13 4357.29 337.546L4357.3 337.536C4369.62 325.282 4379.5 313.799 4386.93 303.086C4394.44 292.262 4400.63 276.941 4405.56 257.216C4410.87 237.402 4413.5 212.046 4413.5 181.191C4413.5 151.337 4409.8 123.065 4402.4 96.3811C4394.99 69.1338 4383.49 47.1372 4367.86 30.465C4352.16 13.1776 4332.82 4.5 4309.95 4.5C4290.61 4.5 4273.24 11.5624 4257.91 25.5939C4242.95 39.0747 4231.09 58.1546 4222.27 82.7362L4222.26 82.7453L4222.26 82.7543C4213.78 107.349 4209.2 135.378 4208.5 166.823L4208.47 168.256L4209.9 168.353L4280.39 173.131L4281.87 173.232L4281.99 171.747C4283.74 148.428 4286.18 129.935 4289.31 116.238C4291.03 109.209 4293.49 104.111 4296.58 100.788C4299.63 97.5111 4303.35 95.8916 4307.84 95.8916C4312.46 95.8916 4316.47 97.4699 4319.95 100.671C4323.46 103.903 4326.47 108.839 4328.92 115.607C4333.83 129.159 4336.33 149.652 4336.33 177.209C4336.33 196.767 4334.41 212.799 4330.61 225.35L4330.6 225.36L4330.6 225.37C4327.12 237.477 4322.81 246.841 4317.7 253.543C4312.5 260.357 4305.2 268.257 4295.77 277.25C4284.85 287.382 4276.01 297.275 4269.28 306.931C4262.46 316.172 4256.62 329.909 4251.69 348.024L4251.68 348.037L4251.68 348.051C4247.08 366.268 4244.8 390.03 4244.8 419.29C4244.8 435.761 4245.15 448.547 4245.85 457.63ZM4239.54 612V613.6L4241.13 613.497L4315.3 608.719L4316.71 608.629V607.222V494.941V493.441H4315.21H4241.04H4239.54V494.941V612Z" stroke="#8596C2" stroke-opacity="0.69" stroke-width="3"/>
<path d="M4569.85 457.63L4569.96 459.014H4571.35H4632.9H4634.4V457.514V453.532C4634.4 431.315 4636.49 413.156 4640.65 399.009C4644.83 384.769 4649.85 373.807 4655.66 366.04L4655.67 366.035C4661.92 357.626 4670.45 348.13 4681.29 337.546L4681.3 337.536C4693.62 325.282 4703.5 313.799 4710.93 303.086C4718.44 292.262 4724.63 276.941 4729.56 257.216C4734.87 237.402 4737.5 212.046 4737.5 181.191C4737.5 151.337 4733.8 123.065 4726.4 96.3811C4718.99 69.1338 4707.49 47.1372 4691.86 30.465C4676.16 13.1776 4656.82 4.5 4633.95 4.5C4614.61 4.5 4597.24 11.5624 4581.91 25.5939C4566.95 39.0747 4555.09 58.1546 4546.27 82.7362L4546.26 82.7453L4546.26 82.7543C4537.78 107.349 4533.2 135.378 4532.5 166.823L4532.47 168.256L4533.9 168.353L4604.39 173.131L4605.87 173.232L4605.99 171.747C4607.74 148.428 4610.18 129.935 4613.31 116.238C4615.03 109.209 4617.49 104.111 4620.58 100.788C4623.63 97.5111 4627.35 95.8916 4631.84 95.8916C4636.46 95.8916 4640.47 97.4699 4643.95 100.671C4647.46 103.903 4650.47 108.839 4652.92 115.607C4657.83 129.159 4660.33 149.652 4660.33 177.209C4660.33 196.767 4658.41 212.799 4654.61 225.35L4654.6 225.36L4654.6 225.37C4651.12 237.477 4646.81 246.841 4641.7 253.543C4636.5 260.357 4629.2 268.257 4619.77 277.25C4608.85 287.382 4600.01 297.275 4593.28 306.931C4586.46 316.172 4580.62 329.909 4575.69 348.024L4575.68 348.037L4575.68 348.051C4571.08 366.268 4568.8 390.03 4568.8 419.29C4568.8 435.761 4569.15 448.547 4569.85 457.63ZM4563.54 612V613.6L4565.13 613.497L4639.3 608.719L4640.71 608.629V607.222V494.941V493.441H4639.21H4565.04H4563.54V494.941V612Z" stroke="#8596C2" stroke-opacity="0.69" stroke-width="3"/>
<path d="M4893.85 457.63L4893.96 459.014H4895.35H4956.9H4958.4V457.514V453.532C4958.4 431.315 4960.49 413.156 4964.65 399.009C4968.83 384.769 4973.85 373.807 4979.66 366.04L4979.67 366.035C4985.92 357.626 4994.45 348.13 5005.29 337.546L5005.3 337.536C5017.62 325.282 5027.5 313.799 5034.93 303.086C5042.44 292.262 5048.63 276.941 5053.56 257.216C5058.87 237.402 5061.5 212.046 5061.5 181.191C5061.5 151.337 5057.8 123.065 5050.4 96.3811C5042.99 69.1338 5031.49 47.1372 5015.86 30.465C5000.16 13.1776 4980.82 4.5 4957.95 4.5C4938.61 4.5 4921.24 11.5624 4905.91 25.5939C4890.95 39.0747 4879.09 58.1546 4870.27 82.7362L4870.26 82.7453L4870.26 82.7543C4861.78 107.349 4857.2 135.378 4856.5 166.823L4856.47 168.256L4857.9 168.353L4928.39 173.131L4929.87 173.232L4929.99 171.747C4931.74 148.428 4934.18 129.935 4937.31 116.238C4939.03 109.209 4941.49 104.111 4944.58 100.788C4947.63 97.5111 4951.35 95.8916 4955.84 95.8916C4960.46 95.8916 4964.47 97.4699 4967.95 100.671C4971.46 103.903 4974.47 108.839 4976.92 115.607C4981.83 129.159 4984.33 149.652 4984.33 177.209C4984.33 196.767 4982.41 212.799 4978.61 225.35L4978.6 225.36L4978.6 225.37C4975.12 237.477 4970.81 246.841 4965.7 253.543C4960.5 260.357 4953.2 268.257 4943.77 277.25C4932.85 287.382 4924.01 297.275 4917.28 306.931C4910.46 316.172 4904.62 329.909 4899.69 348.024L4899.68 348.037L4899.68 348.051C4895.08 366.268 4892.8 390.03 4892.8 419.29C4892.8 435.761 4893.15 448.547 4893.85 457.63ZM4887.54 612V613.6L4889.13 613.497L4963.3 608.719L4964.71 608.629V607.222V494.941V493.441H4963.21H4889.04H4887.54V494.941V612Z" stroke="#8596C2" stroke-opacity="0.69" stroke-width="3"/>
<path d="M357.853 476.63L357.961 478.014H359.349H420.896H422.396V476.514V472.532C422.396 450.315 424.494 432.156 428.648 418.009C432.828 403.769 437.849 392.807 443.664 385.04L443.667 385.035C449.917 376.626 458.451 367.13 469.288 356.546L469.297 356.536C481.616 344.282 491.5 332.799 498.93 322.086C506.438 311.262 512.631 295.941 517.562 276.216C522.866 256.402 525.5 231.046 525.5 200.191C525.5 170.337 521.802 142.065 514.399 115.381C506.987 88.1338 495.492 66.1372 479.863 49.465C464.157 32.1776 444.822 23.5 421.948 23.5C402.606 23.5 385.245 30.5624 369.913 44.5939C354.954 58.0747 343.091 77.1546 334.265 101.736L334.262 101.745L334.259 101.754C325.782 126.349 321.205 154.378 320.5 185.823L320.468 187.256L321.899 187.353L392.388 192.131L393.874 192.232L393.985 190.747C395.736 167.428 398.183 148.935 401.314 135.238C403.035 128.209 405.491 123.111 408.58 119.788C411.627 116.511 415.349 114.892 419.844 114.892C424.457 114.892 428.469 116.47 431.946 119.671C435.456 122.903 438.471 127.839 440.922 134.607C445.828 148.159 448.328 168.652 448.328 196.209C448.328 215.767 446.406 231.799 442.606 244.35L442.603 244.36L442.6 244.37C439.123 256.477 434.806 265.841 429.698 272.543C424.504 279.357 417.202 287.257 407.769 296.25C396.849 306.382 388.011 316.275 381.276 325.931C374.458 335.172 368.615 348.909 363.688 367.024L363.684 367.037L363.681 367.051C359.08 385.268 356.797 409.03 356.797 438.29C356.797 454.761 357.148 467.547 357.853 476.63ZM351.536 631V632.6L353.133 632.497L427.305 627.719L428.708 627.629V626.222V513.941V512.441H427.208H353.036H351.536V513.941V631Z" stroke="#8596C2" stroke-opacity="0.69" stroke-width="3"/>
<path d="M39.8535 476.63L39.961 478.014H41.349H102.896H104.396V476.514V472.532C104.396 450.315 106.494 432.156 110.648 418.009C114.828 403.769 119.849 392.807 125.664 385.04L125.667 385.035C131.917 376.626 140.451 367.13 151.288 356.546L151.297 356.536C163.616 344.282 173.5 332.799 180.93 322.086C188.438 311.262 194.631 295.941 199.562 276.216C204.866 256.402 207.5 231.046 207.5 200.191C207.5 170.337 203.802 142.065 196.399 115.381C188.987 88.1338 177.492 66.1372 161.863 49.465C146.157 32.1776 126.822 23.5 103.948 23.5C84.6061 23.5 67.2449 30.5624 51.9135 44.5939C36.9544 58.0747 25.0905 77.1546 16.2653 101.736L16.2621 101.745L16.2589 101.754C7.78233 126.349 3.20452 154.378 2.50038 185.823L2.46828 187.256L3.89856 187.353L74.3881 192.131L75.8739 192.232L75.9854 190.747C77.7359 167.428 80.1828 148.935 83.3139 135.238C85.0349 128.209 87.4912 123.111 90.5803 119.788C93.627 116.511 97.3492 114.892 101.844 114.892C106.457 114.892 110.469 116.47 113.946 119.671C117.456 122.903 120.471 127.839 122.922 134.607C127.828 148.159 130.328 168.652 130.328 196.209C130.328 215.767 128.406 231.799 124.606 244.35L124.603 244.36L124.6 244.37C121.123 256.477 116.806 265.841 111.698 272.543C106.504 279.357 99.2025 287.257 89.7685 296.25C78.8486 306.382 70.0112 316.275 63.276 325.931C56.4581 335.172 50.6154 348.909 45.688 367.024L45.6844 367.037L45.6811 367.051C41.0797 385.268 38.7969 409.03 38.7969 438.29C38.7969 454.761 39.1476 467.547 39.8535 476.63ZM33.5365 631V632.6L35.1329 632.497L109.305 627.719L110.708 627.629V626.222V513.941V512.441H109.208H35.0365H33.5365V513.941V631Z" stroke="#8596C2" stroke-opacity="0.69" stroke-width="3"/>
<path d="M697.853 464.63L697.961 466.014H699.349H760.896H762.396V464.514V460.532C762.396 438.315 764.494 420.156 768.648 406.009C772.828 391.769 777.849 380.807 783.664 373.04L783.667 373.035C789.917 364.626 798.451 355.13 809.288 344.546L809.297 344.536C821.616 332.282 831.5 320.799 838.93 310.086C846.438 299.262 852.631 283.941 857.562 264.216C862.866 244.402 865.5 219.046 865.5 188.191C865.5 158.337 861.802 130.065 854.399 103.381C846.987 76.1338 835.492 54.1372 819.863 37.465C804.157 20.1776 784.822 11.5 761.948 11.5C742.606 11.5 725.245 18.5624 709.913 32.5939C694.954 46.0747 683.091 65.1546 674.265 89.7362L674.262 89.7453L674.259 89.7543C665.782 114.349 661.205 142.378 660.5 173.823L660.468 175.256L661.899 175.353L732.388 180.131L733.874 180.232L733.985 178.747C735.736 155.428 738.183 136.935 741.314 123.238C743.035 116.209 745.491 111.111 748.58 107.788C751.627 104.511 755.349 102.892 759.844 102.892C764.457 102.892 768.469 104.47 771.946 107.671C775.456 110.903 778.471 115.839 780.922 122.607C785.828 136.159 788.328 156.652 788.328 184.209C788.328 203.767 786.406 219.799 782.606 232.35L782.603 232.36L782.6 232.37C779.123 244.477 774.806 253.841 769.698 260.543C764.504 267.357 757.202 275.257 747.769 284.25C736.849 294.382 728.011 304.275 721.276 313.931C714.458 323.172 708.615 336.909 703.688 355.024L703.684 355.037L703.681 355.051C699.08 373.268 696.797 397.03 696.797 426.29C696.797 442.761 697.148 455.547 697.853 464.63ZM691.536 619V620.6L693.133 620.497L767.305 615.719L768.708 615.629V614.222V501.941V500.441H767.208H693.036H691.536V501.941V619Z" stroke="#8596C2" stroke-opacity="0.69" stroke-width="3"/>
<path d="M1052.85 464.63L1052.96 466.014H1054.35H1115.9H1117.4V464.514V460.532C1117.4 438.315 1119.49 420.156 1123.65 406.009C1127.83 391.769 1132.85 380.807 1138.66 373.04L1138.67 373.035C1144.92 364.626 1153.45 355.13 1164.29 344.546L1164.3 344.536C1176.62 332.282 1186.5 320.799 1193.93 310.086C1201.44 299.262 1207.63 283.941 1212.56 264.216C1217.87 244.402 1220.5 219.046 1220.5 188.191C1220.5 158.337 1216.8 130.065 1209.4 103.381C1201.99 76.1338 1190.49 54.1372 1174.86 37.465C1159.16 20.1776 1139.82 11.5 1116.95 11.5C1097.61 11.5 1080.24 18.5624 1064.91 32.5939C1049.95 46.0747 1038.09 65.1546 1029.27 89.7362L1029.26 89.7453L1029.26 89.7543C1020.78 114.349 1016.2 142.378 1015.5 173.823L1015.47 175.256L1016.9 175.353L1087.39 180.131L1088.87 180.232L1088.99 178.747C1090.74 155.428 1093.18 136.935 1096.31 123.238C1098.03 116.209 1100.49 111.111 1103.58 107.788C1106.63 104.511 1110.35 102.892 1114.84 102.892C1119.46 102.892 1123.47 104.47 1126.95 107.671C1130.46 110.903 1133.47 115.839 1135.92 122.607C1140.83 136.159 1143.33 156.652 1143.33 184.209C1143.33 203.767 1141.41 219.799 1137.61 232.35L1137.6 232.36L1137.6 232.37C1134.12 244.477 1129.81 253.841 1124.7 260.543C1119.5 267.357 1112.2 275.257 1102.77 284.25C1091.85 294.382 1083.01 304.275 1076.28 313.931C1069.46 323.172 1063.62 336.909 1058.69 355.024L1058.68 355.037L1058.68 355.051C1054.08 373.268 1051.8 397.03 1051.8 426.29C1051.8 442.761 1052.15 455.547 1052.85 464.63ZM1046.54 619V620.6L1048.13 620.497L1122.3 615.719L1123.71 615.629V614.222V501.941V500.441H1122.21H1048.04H1046.54V501.941V619Z" stroke="#8596C2" stroke-opacity="0.69" stroke-width="3"/>
<path d="M1374.85 454.63L1374.96 456.014H1376.35H1437.9H1439.4V454.514V450.532C1439.4 428.315 1441.49 410.156 1445.65 396.009C1449.83 381.769 1454.85 370.807 1460.66 363.04L1460.67 363.035C1466.92 354.626 1475.45 345.13 1486.29 334.546L1486.3 334.536C1498.62 322.282 1508.5 310.799 1515.93 300.086C1523.44 289.262 1529.63 273.941 1534.56 254.216C1539.87 234.402 1542.5 209.046 1542.5 178.191C1542.5 148.337 1538.8 120.065 1531.4 93.3811C1523.99 66.1338 1512.49 44.1372 1496.86 27.465C1481.16 10.1776 1461.82 1.5 1438.95 1.5C1419.61 1.5 1402.24 8.56243 1386.91 22.5939C1371.95 36.0747 1360.09 55.1546 1351.27 79.7362L1351.26 79.7453L1351.26 79.7543C1342.78 104.349 1338.2 132.378 1337.5 163.823L1337.47 165.256L1338.9 165.353L1409.39 170.131L1410.87 170.232L1410.99 168.747C1412.74 145.428 1415.18 126.935 1418.31 113.238C1420.03 106.209 1422.49 101.111 1425.58 97.7881C1428.63 94.5111 1432.35 92.8916 1436.84 92.8916C1441.46 92.8916 1445.47 94.4699 1448.95 97.6712C1452.46 100.903 1455.47 105.839 1457.92 112.607C1462.83 126.159 1465.33 146.652 1465.33 174.209C1465.33 193.767 1463.41 209.799 1459.61 222.35L1459.6 222.36L1459.6 222.37C1456.12 234.477 1451.81 243.841 1446.7 250.543C1441.5 257.357 1434.2 265.257 1424.77 274.25C1413.85 284.382 1405.01 294.275 1398.28 303.931C1391.46 313.172 1385.62 326.909 1380.69 345.024L1380.68 345.037L1380.68 345.051C1376.08 363.268 1373.8 387.03 1373.8 416.29C1373.8 432.761 1374.15 445.547 1374.85 454.63ZM1368.54 609V610.6L1370.13 610.497L1444.3 605.719L1445.71 605.629V604.222V491.941V490.441H1444.21H1370.04H1368.54V491.941V609Z" stroke="#8596C2" stroke-opacity="0.69" stroke-width="3"/>
</svg>
